<svg style="enable-background:new 0 0 67 67;" version="1.1" viewBox="0 0 67 67" xml:space="preserve" xmlns="http://www.w3.org/2000/svg"><path d="M 61.731833,16.783448 C 60.855064,10.336694 55.17491,5.2562169 48.441526,4.2717554 47.305526,4.1054038 43.001372,3.5 33.030833,3.5 h -0.07446 C 22.983141,3.5 20.843449,4.1054038 19.707449,4.2717554 13.161526,5.2289477 7.1836569,9.7940169 5.7332999,16.317063 c -0.6976035,3.212462 -0.7720515,6.774 -0.6424569,10.041 0.1847407,4.685077 0.2205861,9.361923 0.6507292,14.027923 0.2973693,3.099385 0.8161231,6.174077 1.552377,9.201 1.3786615,5.590462 6.9594998,10.242769 12.4272688,12.140846 5.854077,1.979385 12.149615,2.307923 18.181846,0.949 0.663539,-0.152692 1.319846,-0.33 1.968693,-0.531769 1.464153,-0.460846 3.182,-0.976308 4.444846,-1.881692 0.01731,-0.01269 0.03154,-0.02908 0.04154,-0.048 0.01,-0.01885 0.01562,-0.03977 0.01631,-0.06108 v -4.521385 c -3.08e-4,-0.01992 -0.0051,-0.03954 -0.014,-0.05738 -0.009,-0.01785 -0.02185,-0.03354 -0.03777,-0.04577 -0.01585,-0.01231 -0.03431,-0.02092 -0.05392,-0.02531 -0.01969,-0.0043 -0.04008,-0.0042 -0.05969,2.3e-4 -3.864769,0.913077 -7.825154,1.370769 -11.798615,1.363539 -6.838154,0 -8.677308,-3.209693 -9.204,-4.546 -0.423308,-1.154846 -0.692154,-2.359462 -0.799615,-3.583308 -0.0011,-0.02054 0.0028,-0.04108 0.01115,-0.05992 0.0084,-0.01877 0.02123,-0.03538 0.03731,-0.04839 0.01615,-0.013 0.03515,-0.02208 0.05546,-0.02646 0.02031,-0.0045 0.04138,-0.004 0.06154,0.0012 3.800385,0.906846 7.696154,1.364538 11.605615,1.363538 0.940231,0 1.877693,0 2.818,-0.02454 3.931923,-0.109077 8.076154,-0.308154 11.944693,-1.055385 0.09654,-0.01908 0.193,-0.03546 0.275769,-0.06 6.101923,-1.159 11.908846,-4.796846 12.498923,-14.008846 0.02208,-0.362692 0.07723,-3.798769 0.07723,-4.175077 0.0028,-1.279 0.416384,-9.072846 -0.06069,-13.861538 z m -9.391461,22.98623 H 45.924141 V 24.225525 c 0,-3.272462 -1.378692,-4.941385 -4.182923,-4.941385 -3.082692,0 -4.626769,1.974385 -4.626769,5.874 v 8.508385 H 30.736757 V 25.15814 c 0,-3.899615 -1.546847,-5.874 -4.629539,-5.874 -2.787692,0 -4.180154,1.668923 -4.182923,4.941385 V 39.769678 H 15.513526 V 23.753755 c 0,-3.272461 0.844692,-5.87223 2.534,-7.799384 1.742615,-1.922539 4.028461,-2.909693 6.865769,-2.909693 3.283923,0 5.765538,1.248923 7.419923,3.744231 l 1.596539,2.650692 1.59923,-2.650692 c 1.654385,-2.495308 4.136,-3.744231 7.414462,-3.744231 2.834538,0 5.120308,0.987154 6.868461,2.909693 1.689385,1.925307 2.534,4.525077 2.534,7.799384 z"  style="fill-rule:evenodd;clip-rule:evenodd;"/></svg>
