<svg style="enable-background:new 0 0 67 67;" version="1.1" 
 viewBox="0 0 1001 1001" xml:space="preserve" xmlns="http://www.w3.org/2000/svg" xmlns:xlink="http://www.w3.org/1999/xlink"
 >

<g transform="translate(0.000000,1001.000000) scale(0.100000,-0.100000)">
<path d="M4790 9999 c-1595 -62 -3071 -895 -3955 -2234 -145 -220 -218 -347
-331 -580 -275 -568 -427 -1127 -485 -1780 -25 -280 -13 -738 27 -1050 139
-1092 648 -2118 1436 -2897 460 -455 954 -789 1553 -1049 60 -26 110 -47 111
-46 1 1 -3 43 -8 92 -16 131 -16 694 0 845 36 347 44 387 348 1700 148 636
264 1155 261 1170 -3 14 -21 87 -41 163 -174 668 -106 1249 188 1607 98 121
254 220 401 256 46 12 110 18 185 18 129 0 224 -22 316 -75 253 -143 367 -480
302 -889 -17 -112 -53 -242 -187 -682 -71 -235 -138 -462 -147 -505 -24 -111
-24 -334 0 -428 53 -203 174 -361 351 -460 140 -79 250 -106 460 -112 148 -4
184 -2 275 17 577 118 1024 653 1184 1418 46 219 59 359 60 617 0 330 -35 560
-125 823 -269 784 -941 1265 -1831 1311 -1118 58 -2003 -482 -2312 -1410 -85
-256 -119 -475 -118 -769 0 -501 140 -930 406 -1250 25 -30 46 -59 46 -65 0
-17 -69 -97 -109 -127 -55 -40 -113 -58 -206 -65 -594 -40 -1086 857 -1016
1852 31 425 119 760 298 1123 165 336 418 661 705 907 686 588 1612 854 2614
750 1095 -114 1991 -707 2447 -1621 498 -996 414 -2296 -208 -3229 -123 -185
-196 -275 -345 -429 -455 -468 -1028 -726 -1613 -726 -471 0 -855 162 -1176
496 -57 58 -104 104 -105 102 -1 -1 -55 -219 -120 -483 -144 -587 -182 -730
-241 -910 -125 -379 -304 -757 -509 -1075 -30 -47 -52 -88 -48 -91 10 -9 291
-84 422 -113 335 -73 557 -97 953 -103 418 -7 644 10 997 73 1576 283 2927
1317 3621 2770 245 512 395 1054 461 1659 18 163 18 818 0 980 -68 623 -218
1155 -477 1690 -488 1012 -1315 1836 -2330 2326 -740 357 -1542 521 -2385 488z"/>
</g>
</svg>
