<?xml version="1.0" encoding="utf-8"?>
<!-- Generator: Adobe Illustrator 19.0.0, SVG Export Plug-In . SVG Version: 6.00 Build 0)  -->
<svg version="1.1" id="Layer_1" xmlns="http://www.w3.org/2000/svg" xmlns:xlink="http://www.w3.org/1999/xlink" x="0px" y="0px"
	 viewBox="0 0 512 512" style="enable-background:new 0 0 512 512;" xml:space="preserve">
<g id="XMLID_1_">
	<path id="XMLID_18_" d="M256,0C114.5,0,0,114.5,0,256s114.5,256,256,256s256-114.5,256-256S397.5,0,256,0z M84.7,290.4l-1.9,0.9
		l-1.9-0.9l-1.9-19.5l2.8-19.5l1.9-1.9l1.9,1.9l2.8,19.5L84.7,290.4z M97.7,302.5l-1.9,1.9l-0.9-1.9l-3.7-31.7l3.7-32.6l1.9-1.9
		l1.9,1.9l3.7,32.6L97.7,302.5z M112.6,308.1c0,0.9-0.9,1.9-1.9,1.9c-0.9,0-1.9-0.9-1.9-1.9l-3.7-37.2l3.7-38.2
		c0-0.9,0.9-1.9,1.9-1.9c0.9,0,1.9,0.9,1.9,1.9l3.7,38.2L112.6,308.1z M126.6,309.1c0,0.9-0.9,1.9-1.9,1.9c-0.9,0-1.9-0.9-1.9-1.9
		l-2.8-38.2l2.8-39.1c0-0.9,0.9-1.9,1.9-1.9c0.9,0,1.9,0.9,1.9,1.9l3.7,39.1L126.6,309.1z M141.5,309.1c0,0.9-0.9,2.8-2.8,2.8
		c-0.9,0-2.8-0.9-2.8-2.8l-2.8-38.2l2.8-36.3c0-0.9,0.9-2.8,2.8-2.8c0.9,0,1.9,0.9,2.8,2.8l3.7,36.3L141.5,309.1z M156.4,309.1
		L156.4,309.1c0,1.9-0.9,2.8-2.8,2.8c-1.9,0-2.8-0.9-2.8-2.8l-2.8-38.2l2.8-59.6c0-1.9,0.9-2.8,2.8-2.8c1.9,0,2.8,0.9,2.8,2.8
		l2.8,59.6L156.4,309.1z M171.3,309.1L171.3,309.1c0,1.9-1.9,2.8-2.8,2.8c-1.9,0-2.8-0.9-2.8-2.8l-2.8-38.2l2.8-72.6
		c0-1.9,1.9-2.8,2.8-2.8c1.9,0,2.8,0.9,2.8,2.8l2.8,72.6L171.3,309.1z M186.2,309.1L186.2,309.1c0,1.9-1.9,3.7-3.7,3.7
		c-1.9,0-3.7-1.9-3.7-3.7l-2.8-37.2l2.8-79.1c0-1.9,1.9-3.7,3.7-3.7c1.9,0,2.8,1.9,3.7,3.7l2.8,79.1L186.2,309.1z M201.1,309.1
		L201.1,309.1L201.1,309.1c0,1.9-1.9,3.7-3.7,3.7c-1.9,0-3.7-1.9-3.7-3.7l-1.9-37.2l1.9-81.9c0-1.9,1.9-3.7,3.7-3.7
		c1.9,0,3.7,1.9,3.7,3.7l2.8,81.9L201.1,309.1L201.1,309.1z M216,308.1L216,308.1c0,1.9-1.9,3.7-3.7,3.7c-1.9,0-3.7-1.9-3.7-3.7
		l-1.9-37.2l1.9-79.1c0-1.9,1.9-3.7,3.7-3.7c1.9,0,3.7,1.9,3.7,3.7l2.8,79.1L216,308.1z M231.8,308.1L231.8,308.1
		c0,2.8-1.9,4.7-4.7,4.7s-4.7-1.9-4.7-4.7l-1.9-37.2l1.9-76.3c0-2.8,1.9-4.7,4.7-4.7c1.9,0,3.7,1.9,4.7,4.7l1.9,76.3L231.8,308.1z
		 M246.7,308.1L246.7,308.1c0,2.8-1.9,4.7-4.7,4.7s-4.7-1.9-4.7-4.7l-1.9-36.3l1.9-91.2c0-2.8,1.9-4.7,4.7-4.7s4.7,1.9,4.7,4.7
		l1.9,91.2L246.7,308.1z M262.5,307.2L262.5,307.2c0,2.8-1.9,4.7-4.7,4.7c-2.8,0-4.7-1.9-4.7-4.7l-1.9-36.3l0.9-98.7
		c0-2.8,1.9-4.7,4.7-4.7c2.8,0,4.7,1.9,4.7,4.7l1.9,99.6L262.5,307.2z M393.8,312.8H271.8c-2.8,0-4.7-2.8-4.7-5.6V167.6
		c0-2.8,0.9-3.7,4.7-5.6c8.4-3.7,18.6-5.6,27.9-5.6c41,0,74.5,31.7,77.3,70.7c5.6-1.9,11.2-3.7,16.8-3.7c24.2,0,43.8,19.5,43.8,43.8
		C437.5,292.3,418,312.8,393.8,312.8z"/>
</g>
</svg>
