<?xml version="1.0" encoding="UTF-8"?>
<svg width="144.99" height="144.99" version="1.1" viewBox="0 0 144.99 144.99" xml:space="preserve" xmlns="http://www.w3.org/2000/svg"><path d="m72.494 0a72.495 72.495 0 0 0-72.494 72.494 72.495 72.495 0 0 0 72.494 72.496 72.495 72.495 0 0 0 72.496-72.496 72.495 72.495 0 0 0-72.496-72.494zm-54.525 42.414c2.26 0 4.6198 0.10078 7.0898 0.30078 2.29 0.21 4.4507 0.31055 6.4707 0.31055 2.06 0 4.4891-0.10055 7.2891-0.31055 2.93-0.2 5.531-0.30078 7.791-0.30078 0.54 0 0.80859 0.46992 0.80859 1.4199 0 0.94-0.17 1.4102-0.5 1.4102-2.26 0.17-4.0398 0.7507-5.3398 1.7207-1.3 0.98-1.9492 2.2596-1.9492 3.8496 0 0.81 0.27055 1.8193 0.81055 3.0293l20.949 47.311 11.891-22.459-11.08-23.23c-1.99-4.14-3.6302-6.8195-4.9102-8.0195-1.28-1.19-3.2203-1.9312-5.8203-2.2012-0.24 0-0.45969-0.13969-0.67969-0.42969-0.22-0.28-0.33008-0.61047-0.33008-0.98047 0-0.95 0.22898-1.4199 0.70898-1.4199 2.26 0 4.3307 0.10078 6.2207 0.30078 1.82 0.21 3.7603 0.31055 5.8203 0.31055 2.02 0 4.1599-0.10055 6.4199-0.31055 2.33-0.2 4.6189-0.30078 6.8789-0.30078 0.54 0 0.81055 0.46992 0.81055 1.4199 0 0.94-0.16 1.4102-0.5 1.4102-4.52 0.31-6.7793 1.5896-6.7793 3.8496 0 1.01 0.52031 2.5812 1.5703 4.7012l7.3301 14.879 7.2891-13.609c1.01-1.92 1.5195-3.5394 1.5195-4.8594 0-3.1-2.2593-4.7509-6.7793-4.9609-0.41 0-0.60938-0.47016-0.60938-1.4102 0-0.34 0.09883-0.65898 0.29883-0.95898 0.21-0.31 0.41133-0.46094 0.61133-0.46094 1.62 0 3.6088 0.10078 5.9688 0.30078 2.26 0.21 4.1203 0.31055 5.5703 0.31055 1.04 0 2.5796-0.09172 4.5996-0.26172 2.56-0.23 4.7097-0.34961 6.4297-0.34961 0.4 0 0.60156 0.40094 0.60156 1.2109 0 1.08-0.37133 1.6191-1.1113 1.6191-2.63 0.27-4.7496 0.99969-6.3496 2.1797-1.6 1.18-3.6002 3.861-5.9902 8.041l-9.7188 17.971 13.16 26.809 19.43-45.18c0.66999-1.65 1.0098-3.1708 1.0098-4.5508 0-3.31-2.2612-5.0595-6.7812-5.2695-0.41 0-0.60937-0.47016-0.60937-1.4102 0-0.95 0.30015-1.4199 0.91015-1.4199 1.65 0 3.6091 0.10078 5.8691 0.30078 2.09 0.21 3.8517 0.31055 5.2617 0.31055 1.49 0 3.2102-0.10055 5.1602-0.31055 2.03-0.2 3.8488-0.30078 5.4688-0.30078 0.47 0 0.71093 0.40094 0.71094 1.2109 0 0.41-0.13086 0.77914-0.38086 1.1191-0.26 0.33-0.52985 0.5-0.83985 0.5-2.49 0.24-4.5391 1.0402-6.1191 2.4102-1.59 1.36-3.2202 3.9706-4.9102 7.8105l-25.801 58.141c-0.17 0.54-0.63992 0.80859-1.4199 0.80859-0.61 0-1.0799-0.26859-1.4199-0.80859l-14.471-30.262-16.639 30.262c-0.34 0.54-0.80992 0.80859-1.4199 0.80859-0.74 0-1.2307-0.26859-1.4707-0.80859l-25.35-58.141c-1.58-3.61-3.2498-6.1305-5.0098-7.5605-1.75-1.43-4.2001-2.3202-7.3301-2.6602-0.27 0-0.52977-0.13969-0.75977-0.42969-0.24-0.28-0.36133-0.61047-0.36133-0.98047 0-0.95 0.27055-1.4199 0.81055-1.4199z" clip-rule="evenodd" fill-rule="evenodd"/></svg>
